<!DOCTYPE svg PUBLIC "-//W3C//DTD SVG 1.1//EN" "http://www.w3.org/Graphics/SVG/1.1/DTD/svg11.dtd">
<!-- Uploaded to: SVG Repo, www.svgrepo.com, Transformed by: SVG Repo Mixer Tools -->
<svg fill="#ffbd59" height="800px" width="800px" version="1.1" xmlns="http://www.w3.org/2000/svg" viewBox="0 0 512 512" xmlns:xlink="http://www.w3.org/1999/xlink" enable-background="new 0 0 512 512" stroke="#ffbd59">
<g id="SVGRepo_bgCarrier" stroke-width="0"/>
<g id="SVGRepo_tracerCarrier" stroke-linecap="round" stroke-linejoin="round"/>
<g id="SVGRepo_iconCarrier"> <g> <g> <g> <path d="m244.1,461.2c-51.1,0-99.1-19.9-135.3-56-36.1-36.1-56-84.2-56-135.3 0-44.2 14.9-86.2 42.3-120.1l269,269c-33.8,27.5-75.8,42.4-120,42.4zm28.9-191.3l48.7-48.7c9,0.8 18.2-2.3 25.1-9.2 12.4-12.4 12.4-32.4 0-44.8-12.4-12.4-32.4-12.4-44.8,0-6.9,6.9-9.9,16.1-9.2,25.1l-48.7,48.7-135.2-135.3c-8-8-20.9-8-28.9,1.42109e-14-43.8,43.8-68,102.1-68,164.1 0,62 24.1,120.3 68,164.1 43.8,43.8 102.1,68 164.1,68 62,0 120.3-24.1 164.1-68 3.8-3.8 11.7-17.2 0-28.9l-135.2-135.1z"/> <path d="m349.1,82.1c-8-8-20.9-8-28.9,0-8,8-8,20.9 0,28.9l82.8,82.8c8,8 20.9,8 28.9,0 8-8 8-20.9 0-28.9l-82.8-82.8z"/> <path d="m496,139.3l-121.3-121.3c-8-8-20.9-8-28.9,0-8,8-8,20.9 0,28.9l121.3,121.3c8,8 20.9,8 28.9,0 8-8 8-20.9 0-28.9z"/> </g> </g> </g> </g>
</svg>